<svg version="1.1" xmlns="http://www.w3.org/2000/svg" width="3755" height="1024" viewBox="0 0 3755 1024">
<title></title>
<g id="icomoon-ignore">
</g>
<path fill="#83a6e4" d="M908.077 407.656c-21.629 2.651-44.089 2.651-67.038-0.353-116.008-15.132-209.203-108.328-224.347-224.347-3.004-22.949-3.004-45.397-0.353-67.038 7.487-61.099-41.358-115.746-102.923-115.917h-1.422c-289.382 0-522.695 240.082-511.613 531.945 10.069 265.364 226.304 481.599 491.668 491.679 291.863 11.071 531.945-222.242 531.945-511.625v-1.422c-0.171-61.554-54.807-110.41-115.917-102.923z"></path>
<path fill="#83a6e4" d="M835.484 321.339c50.028 7.919 96.529-7.225 130.753-36.386 23.905-20.389 30.436-55.637 16.088-83.593-34.52-67.231-89.008-122.391-155.728-157.742-31.221-16.543-69.734-9.159-91.648 18.58-26.635 33.712-40.107 78.279-32.54 126.066 10.684 67.573 65.502 122.391 133.074 133.074z"></path>
<path fill="#83a6e4" d="M1300.667 612.6c-47.184 0-84.56-14.040-112.128-42.155l30.618-42.94c22.79 23.848 50.893 35.783 84.298 35.783 14.575 0 25.907-2.844 33.997-8.533 8.078-5.712 12.129-12.663 12.129-20.89 0-7.157-3.777-13.119-11.332-17.886-7.555-4.779-16.964-8.215-28.24-10.342-11.264-2.116-23.529-5.166-36.773-9.148-13.266-3.971-25.52-8.476-36.784-13.517-11.264-5.029-20.673-12.982-28.228-23.859-7.555-10.866-11.332-24.11-11.332-39.754 0-22.801 9.148-41.95 27.432-57.458 18.295-15.508 42.678-23.268 73.17-23.268 42.143 0 76.595 12.334 103.378 36.978l-31.414 41.358c-20.946-19.354-46.66-29.025-77.141-29.025-11.924 0-21.208 2.378-27.83 7.157-6.633 4.767-9.944 11.275-9.944 19.479 0 6.36 3.777 11.73 11.332 16.111 7.555 4.369 16.964 7.623 28.228 9.739 11.275 2.128 23.461 5.234 36.591 9.341 13.119 4.119 25.304 8.75 36.58 13.915 11.264 5.177 20.673 13.266 28.228 24.257 7.555 11.002 11.332 24.189 11.332 39.561 0 25.452-9.079 46-27.238 61.622-18.159 15.656-44.476 23.472-78.928 23.472z"></path>
<path fill="#83a6e4" d="M1528.106 612.6c-17.772 0-31.289-4.506-40.562-13.505-9.273-9.023-13.915-22.005-13.915-38.98v-100.204h-31.801v-44.134h31.801v-52.486h50.904v52.486h38.958v44.134h-38.958v86.687c0 6.087 1.582 11.139 4.756 15.11 3.186 3.982 7.43 5.962 12.732 5.962 7.953 0 13.778-1.843 17.499-5.552l10.729 38.15c-9.273 8.226-23.324 12.334-42.143 12.334z"></path>
<path fill="#83a6e4" d="M1692.722 578.4c18.819 0 32.347-5.552 40.539-16.691v-23.859c-8.192-11.139-21.72-16.703-40.539-16.703-10.342 0-18.955 2.583-25.85 7.748-6.895 5.177-10.342 12.277-10.342 21.288 0 8.727 3.447 15.644 10.342 20.662 6.895 5.040 15.508 7.555 25.85 7.555zM1783.778 607.823h-50.517v-19.866c-13.767 16.418-34.054 24.644-60.826 24.644-17.226 0-32.666-5.621-46.319-16.896-13.653-11.264-20.48-26.84-20.48-46.729 0-20.662 6.702-36.181 20.082-46.524 13.392-10.331 28.956-15.508 46.717-15.508 27.307 0 47.582 7.828 60.826 23.461v-25.839c0-9.808-3.834-17.624-11.503-23.461-7.703-5.825-17.897-8.75-30.629-8.75-20.946 0-39.629 7.555-56.058 22.665l-19.092-33.803c22.79-20.139 50.756-30.208 83.9-30.208 24.656 0 44.783 5.7 60.427 17.101 15.644 11.389 23.472 29.946 23.472 55.66z"></path>
<path fill="#83a6e4" d="M1904.244 607.823h-50.483v-192.046h50.483v26.249c7.157-9.011 16.316-16.441 27.443-22.266 11.139-5.837 22.391-8.75 33.792-8.75v49.3c-3.447-0.796-8.090-1.195-13.915-1.195-8.488 0-17.499 2.128-27.045 6.36-9.535 4.244-16.293 9.421-20.275 15.519z"></path>
<path fill="#d3d3d3" d="M2149.178 612.6c-38.161 0-70.11-12.777-95.824-38.377-25.725-25.577-38.571-58.505-38.571-98.805 0-40.289 12.846-73.227 38.571-98.805 25.714-25.577 57.663-38.377 95.824-38.377 39.231 0 71.43 15.644 96.62 46.922l-19.092 12.322c-8.476-11.662-19.604-21.003-33.394-28.023-13.778-7.020-28.49-10.536-44.134-10.536-31.539 0-57.856 10.866-78.928 32.597-21.072 21.743-31.607 49.698-31.607 83.9 0 33.94 10.536 61.827 31.607 83.695s47.388 32.825 78.928 32.825c15.644 0 30.356-3.516 44.134-10.559 13.79-7.020 24.917-16.361 33.394-28.023l19.092 11.935c-25.441 31.528-57.651 47.309-96.62 47.309z"></path>
<path fill="#d3d3d3" d="M2392.122 593.911c21.732 0 38.901-8.021 51.484-24.064 12.595-16.020 18.898-35.442 18.898-58.243 0-22.528-6.303-41.813-18.898-57.856-12.584-16.031-29.753-24.053-51.484-24.053-21.47 0-38.514 8.021-51.098 24.053-12.595 16.043-18.876 35.328-18.876 57.856s6.281 41.882 18.876 58.061c12.584 16.156 29.628 24.246 51.098 24.246zM2392.122 612.605c-27.58 0-49.846-9.671-66.799-29.025-16.964-19.354-25.441-43.349-25.441-71.976s8.476-52.554 25.441-71.771c16.953-19.217 39.219-28.831 66.799-28.831 27.83 0 50.233 9.614 67.197 28.831 16.953 19.217 25.452 43.145 25.452 71.771s-8.499 52.622-25.452 71.976c-16.964 19.354-39.367 29.025-67.197 29.025z"></path>
<path fill="#d3d3d3" d="M2807.233 607.823h-20.662v-134.394c0-29.161-12.868-43.736-38.582-43.736-10.081 0-20.343 3.186-30.811 9.546-10.479 6.36-18.489 14.052-24.053 23.063v145.522h-21.083v-134.394c0-29.161-12.857-43.736-38.559-43.736-9.819 0-19.888 3.254-30.231 9.739-10.331 6.497-18.557 14.256-24.644 23.268v145.124h-20.673v-192.046h20.673v29.025c4.767-7.68 13.175-15.235 25.247-22.665 12.060-7.418 24.314-11.127 36.773-11.127 14.052 0 25.316 3.447 33.803 10.331 8.476 6.895 14.040 15.508 16.703 25.85 5.825-9.546 14.711-17.954 26.647-25.247 11.924-7.293 24.257-10.934 36.978-10.934 34.987 0 52.474 19.479 52.474 58.448z"></path>
<path fill="#d3d3d3" d="M2975.422 593.911c20.946 0 37.376-7.691 49.311-23.063 11.935-15.36 17.886-35.112 17.886-59.244 0-23.859-5.951-43.474-17.886-58.846s-28.365-23.063-49.311-23.063c-12.993 0-25.316 3.311-36.978 9.933-11.662 6.633-20.412 14.711-26.237 24.257v95.027c5.825 9.557 14.632 17.772 26.442 24.667 11.799 6.884 24.053 10.331 36.773 10.331zM2979.006 612.605c-27.568 0-49.835-11.935-66.799-35.783v104.175h-20.673v-265.216h20.673v30.219c7.157-10.342 16.623-18.751 28.422-25.259 11.799-6.485 24.599-9.739 38.377-9.739 25.702 0 46.444 9.091 62.225 27.238 15.77 18.159 23.654 42.61 23.654 73.364 0 30.481-7.885 54.932-23.654 73.353-15.781 18.443-36.523 27.648-62.225 27.648z"></path>
<path fill="#d3d3d3" d="M3200.877 596.289c25.179 0 44.533-8.738 58.061-26.249v-42.132c-13.79-17.761-33.155-26.647-58.061-26.647-15.644 0-28.297 4.517-37.968 13.517-9.682 9.023-14.518 20.423-14.518 34.202s4.836 25.111 14.518 33.997c9.671 8.886 22.323 13.312 37.968 13.312zM3279.611 607.826h-20.673v-22.676c-16.703 18.295-38.446 27.455-65.217 27.455-17.761 0-33.394-5.757-46.922-17.294-13.505-11.537-20.275-27.113-20.275-46.729 0-19.877 6.69-35.453 20.070-46.717 13.392-11.264 29.093-16.907 47.127-16.907 27.034 0 48.765 9.148 65.217 27.443v-38.969c0-13.778-4.915-24.576-14.711-32.404-9.819-7.817-22.141-11.73-36.978-11.73-23.609 0-43.611 9.409-60.052 28.228l-11.526-14.313c19.888-21.47 44.533-32.21 73.956-32.21 20.673 0 37.501 5.166 50.495 15.508s19.49 25.714 19.49 46.126z"></path>
<path fill="#d3d3d3" d="M3514.2 607.823h-20.673v-130.014c0-17.499-3.982-29.889-11.935-37.183-7.942-7.282-19.479-10.934-34.588-10.934-11.935 0-23.723 3.186-35.396 9.546-11.662 6.36-20.673 14.188-27.034 23.461v145.124h-20.673v-192.046h20.673v29.025c7.68-9.011 17.897-16.896 30.618-23.654s25.577-10.138 38.571-10.138c40.289 0 60.439 20.81 60.439 62.418z"></path>
<path fill="#d3d3d3" d="M3585.777 682.977l3.573-19.092c4.767 2.116 10.342 3.186 16.703 3.186 12.982 0 22.653-7.828 29.025-23.45l15.11-34.202-81.112-193.638h23.063l69.973 167.799 69.188-167.799h23.472l-99.419 234.2c-10.081 23.836-26.51 35.772-49.3 35.772-7.43 0-14.188-0.933-20.275-2.776z"></path>
</svg>
